<mxfile host="65bd71144e">
    <diagram id="YJa1YVeCBQMnrFL9bhSD" name="第 1 页">
        <mxGraphModel dx="951" dy="667" grid="0" gridSize="10" guides="0" tooltips="1" connect="1" arrows="1" fold="1" page="1" pageScale="1" pageWidth="2339" pageHeight="3300" background="#FFFFFF" math="0" shadow="0">
            <root>
                <mxCell id="0"/>
                <mxCell id="1" parent="0"/>
                <mxCell id="85" value="" style="rounded=1;whiteSpace=wrap;html=1;strokeColor=#F9F6F1;strokeWidth=3;fontSize=16;fontColor=#1A1A1A;fillColor=#F9F6F1;" parent="1" vertex="1">
                    <mxGeometry x="240" y="424" width="698" height="219" as="geometry"/>
                </mxCell>
                <mxCell id="84" value="" style="rounded=1;whiteSpace=wrap;html=1;strokeColor=#F9F6F1;strokeWidth=3;fontSize=16;fontColor=#1A1A1A;fillColor=#F9F6F1;" parent="1" vertex="1">
                    <mxGeometry x="244" y="143" width="689" height="245" as="geometry"/>
                </mxCell>
                <mxCell id="64" value="" style="rounded=1;whiteSpace=wrap;html=1;fillColor=#B6BCC4;strokeColor=none;strokeWidth=3;" parent="1" vertex="1">
                    <mxGeometry x="382" y="189" width="512" height="174" as="geometry"/>
                </mxCell>
                <mxCell id="52" value="Table1&lt;br&gt;key: boy(v3), cat, edge" style="rounded=1;whiteSpace=wrap;html=1;fontSize=16;fillColor=#DECECE;" parent="1" vertex="1">
                    <mxGeometry x="390" y="200" width="230" height="60" as="geometry"/>
                </mxCell>
                <mxCell id="53" value="Table2&lt;br&gt;key: boy(v2)" style="rounded=1;whiteSpace=wrap;html=1;fontSize=16;fillColor=#DECECE;" parent="1" vertex="1">
                    <mxGeometry x="640" y="200" width="230" height="60" as="geometry"/>
                </mxCell>
                <mxCell id="55" value="Table3&lt;br&gt;key range: boy(v1)" style="rounded=1;whiteSpace=wrap;html=1;fontSize=16;fillColor=#CEABC5;" parent="1" vertex="1">
                    <mxGeometry x="390" y="290" width="230" height="60" as="geometry"/>
                </mxCell>
                <mxCell id="56" value="Table4&lt;br&gt;key range: edge-jealous" style="rounded=1;whiteSpace=wrap;html=1;fontSize=16;fillColor=#CEABC5;" parent="1" vertex="1">
                    <mxGeometry x="640" y="290" width="230" height="60" as="geometry"/>
                </mxCell>
                <mxCell id="67" value="Table7&lt;br&gt;key range: boy(v3), ......" style="rounded=1;whiteSpace=wrap;html=1;fontSize=16;fillColor=#B6BCC4;" parent="1" vertex="1">
                    <mxGeometry x="408" y="540" width="230" height="60" as="geometry"/>
                </mxCell>
                <mxCell id="70" value="&lt;font style=&quot;font-size: 16px;&quot; color=&quot;#1a1a1a&quot;&gt;Level0&lt;/font&gt;" style="text;html=1;strokeColor=none;fillColor=none;align=center;verticalAlign=middle;whiteSpace=wrap;rounded=0;strokeWidth=3;" parent="1" vertex="1">
                    <mxGeometry x="281" y="212" width="60" height="30" as="geometry"/>
                </mxCell>
                <mxCell id="71" value="&lt;font style=&quot;font-size: 16px;&quot; color=&quot;#1a1a1a&quot;&gt;Level1&lt;/font&gt;" style="text;html=1;strokeColor=none;fillColor=none;align=center;verticalAlign=middle;whiteSpace=wrap;rounded=0;strokeWidth=3;" parent="1" vertex="1">
                    <mxGeometry x="284" y="295" width="60" height="30" as="geometry"/>
                </mxCell>
                <mxCell id="81" value="&lt;font style=&quot;font-size: 16px;&quot; color=&quot;#1a1a1a&quot;&gt;Level0&lt;/font&gt;" style="text;html=1;strokeColor=none;fillColor=none;align=center;verticalAlign=middle;whiteSpace=wrap;rounded=0;strokeWidth=3;" parent="1" vertex="1">
                    <mxGeometry x="296" y="461" width="60" height="30" as="geometry"/>
                </mxCell>
                <mxCell id="82" value="&lt;font style=&quot;font-size: 16px;&quot; color=&quot;#1a1a1a&quot;&gt;Level1&lt;/font&gt;" style="text;html=1;strokeColor=none;fillColor=none;align=center;verticalAlign=middle;whiteSpace=wrap;rounded=0;strokeWidth=3;" parent="1" vertex="1">
                    <mxGeometry x="292" y="555" width="60" height="30" as="geometry"/>
                </mxCell>
                <mxCell id="83" value="" style="endArrow=classic;html=1;strokeColor=#B6BCC4;strokeWidth=3;fontSize=16;fontColor=#1A1A1A;exitX=0.5;exitY=1;exitDx=0;exitDy=0;entryX=0.5;entryY=0;entryDx=0;entryDy=0;" parent="1" target="67" edge="1">
                    <mxGeometry width="50" height="50" relative="1" as="geometry">
                        <mxPoint x="638" y="364" as="sourcePoint"/>
                        <mxPoint x="881" y="743" as="targetPoint"/>
                    </mxGeometry>
                </mxCell>
            </root>
        </mxGraphModel>
    </diagram>
</mxfile>